# xmcd CD database file
#
# Track frame offsets:
#	150
#	18040
#	31563
#	44997
#	61738
#	73866
#	88777
#	107224
#	124712
#	140106
#	153843
#	172058
#	186362
#	199278
#	214432
#	228643
#	244881
#	257093
#
# Disc length: 3602 seconds
#
# Revision: 0
# Processed by: cddbd v1.5.2PL0 Copyright (c) Steve Scherf et al.
# Submitted via: CDex 1.51
#
DISCID=110e1012
DTITLE=L B S Country Collection - Vol  10
DYEAR=1900
DGENRE=Country
TTITLE0=Tom Maxwell - Old Drovers
TTITLE1=Brian Letton - Mother's Chair
TTITLE2=Anita Ree - Guaranteed To Last
TTITLE3=Rick Aitchison - Dareel
TTITLE4=Lindsay Butler - Lachlan's River Lullaby
TTITLE5=Ken Lindsay - Eighteen Strings
TTITLE6=Rick and Cathy - Old Man River
TTITLE7=Shane Hogan - It's Bloody Hard Yakka
TTITLE8=Three Generations - God Will Prevail
TTITLE9=Ernie Constance - Addicted To The Highway
TTITLE10=Shaza Leigh - Boy In The Neutral Corner
TTITLE11=Ashley Cook - The Battle With The Roan
TTITLE12=Lindsay Waddington - This Flower
TTITLE13=Camp Oven Country - Homestead Of My Dreams
TTITLE14=Charmaine Pout - Grandma Mc Kean
TTITLE15=Dean Perrett - Light Horse Heroes
TTITLE16=Lynette Guest - Play Me A Sad Hank Williams Song
TTITLE17=Lindsay Butler - May You Never Be Alone
EXTD=
EXTT0=
EXTT1=
EXTT2=
EXTT3=
EXTT4=
EXTT5=
EXTT6=
EXTT7=
EXTT8=
EXTT9=
EXTT10=
EXTT11=
EXTT12=
EXTT13=
EXTT14=
EXTT15=
EXTT16=
EXTT17=
PLAYORDER=
